<?xml version="1.0" encoding="utf-8"?>
<!-- Generator: Adobe Illustrator 25.2.1, SVG Export Plug-In . SVG Version: 6.00 Build 0)  -->
<svg version="1.1" id="Layer_1" xmlns="http://www.w3.org/2000/svg" xmlns:xlink="http://www.w3.org/1999/xlink" x="0px" y="0px"
	 viewBox="0 0 234 190" style="enable-background:new 0 0 234 190;" xml:space="preserve">
<style type="text/css">
	.st0{fill:none;stroke:#36639E;stroke-width:2.6322;stroke-linecap:square;stroke-miterlimit:10;}
	.st1{fill:none;stroke:#36639E;stroke-width:2.6322;stroke-miterlimit:10;}
</style>
<g id="_x31_7">
	<polyline class="st0" points="219,27.2 219,151.7 15,151.7 15,10.6 219,10.6 	"/>
	<polyline class="st1" points="143.8,161.4 143.8,179.4 90.2,179.4 90.2,151.7 143.8,151.7 	"/>
	<line class="st1" x1="71.1" y1="179.4" x2="162.9" y2="179.4"/>
	<line class="st1" x1="15" y1="128.1" x2="203" y2="128.1"/>
	<g>
		<polyline class="st0" points="86.4,85.5 67.2,85.5 67.2,56.8 86.4,56.8 		"/>
		<path class="st0" d="M118.2,64.2v13.9c-2.9,2.9-4.5,4.5-7.4,7.4H99.1V56.8h11.6C113.6,59.7,115.3,61.3,118.2,64.2z"/>
		<path class="st0" d="M150,56.8v22.8c-2.3,2.3-3.7,3.7-6,6h-7.1c-2.3-2.3-3.7-3.7-6-6V56.8"/>
		<line class="st0" x1="69.8" y1="71.2" x2="78.7" y2="71.2"/>
	</g>
	<polygon class="st0" points="184.5,105.9 175.3,96.7 181.5,90.3 153,82.4 160.9,111 167.1,104.8 176.3,114 	"/>
</g>
</svg>
