<svg xmlns="http://www.w3.org/2000/svg" id="Layer_1" x="0" y="0" version="1.1" viewBox="0 0 234 190" xml:space="preserve"><style>.st0{stroke-linecap:square}.st0,.st1{fill:none;stroke:#36639e;stroke-width:2.6322;stroke-miterlimit:10}</style><g id="_x31_7"><path d="M219 27.2v124.5H15V10.6h204" class="st0"/><path d="M143.8 161.4v18H90.2v-27.7h53.6M71.1 179.4h91.8M15 128.1h188" class="st1"/><path d="M86.4 85.5H67.2V56.8h19.2M118.2 64.2v13.9l-7.4 7.4H99.1V56.8h11.6c2.9 2.9 4.6 4.5 7.5 7.4zM150 56.8v22.8l-6 6h-7.1l-6-6V56.8M69.8 71.2h8.9M184.5 105.9l-9.2-9.2 6.2-6.4-28.5-7.9 7.9 28.6 6.2-6.2 9.2 9.2z" class="st0"/></g></svg>