<svg xmlns="http://www.w3.org/2000/svg" viewBox="0 0 158 193"><style>.st0{fill:none;stroke:#36639e;stroke-width:2.6322;stroke-linecap:square;stroke-miterlimit:10}.st3{display:inline}.st4{fill:none;stroke:#36639e;stroke-width:2.6322;stroke-miterlimit:10}</style><g id="Layer_1"><g id="_x31_4"><g id="_x31_7_1_"><path d="M139.3 171.5v9.5H18.7v-20.4h120.6M91.6 103.3l1 4.2M65.4 107.5L67.3 96M102.4 53.9v7.9c0 19-10.5 36.9-23.4 36.9-4.1 0-7.9-1.8-11.3-4.9-7.2-6.6-12.1-19-12.1-32v-8.4" class="st0"/><path fill="none" stroke="#36639e" stroke-linecap="round" stroke-miterlimit="10" stroke-width="2.632" d="M53.2 110.4L79 142.5l25.8-32.1"/><path d="M133.5 160.6h-109v-21.5c0-15.8 12.8-28.7 28.7-28.7h51.7c15.8 0 28.7 12.8 28.7 28.7v8.7M9.4 160.6h139.2" class="st0"/></g><path d="M104.8 42.5V47s-3.3 10.5-26.7 10.5S51.3 47 51.3 47V34" class="st0"/><path d="M78.1 12L37.4 27.5 78.1 43l12.4-4.7 14.1-5.3 14.2-5.5z" class="st0"/><path d="M78.1 27.5l18.7 8.1v8" class="st0"/><ellipse cx="78.1" cy="27.5" class="st0" rx="3.1" ry="2.1"/></g></g></svg>