<?xml version="1.0" encoding="utf-8"?>
<!-- Generator: Adobe Illustrator 25.2.1, SVG Export Plug-In . SVG Version: 6.00 Build 0)  -->
<svg version="1.1" xmlns="http://www.w3.org/2000/svg" xmlns:xlink="http://www.w3.org/1999/xlink" x="0px" y="0px"
	 viewBox="0 0 158 193" style="enable-background:new 0 0 158 193;" xml:space="preserve">
<style type="text/css">
	.st0{fill:none;stroke:#36639E;stroke-width:2.6322;stroke-linecap:square;stroke-miterlimit:10;}
	.st1{fill:none;stroke:#36639E;stroke-width:2.6322;stroke-linecap:round;stroke-miterlimit:10;}
	.st2{display:none;}
	.st3{display:inline;}
	.st4{fill:none;stroke:#36639E;stroke-width:2.6322;stroke-miterlimit:10;}
</style>
<g id="Layer_1">
	<g id="_x31_4">
		<g id="_x31_7_1_">
			<polyline class="st0" points="139.3,171.5 139.3,181 18.7,181 18.7,160.6 139.3,160.6 			"/>
			<line class="st0" x1="91.6" y1="103.3" x2="92.6" y2="107.5"/>
			<line class="st0" x1="65.4" y1="107.5" x2="67.3" y2="96"/>
			<path class="st0" d="M102.4,53.9v7.9c0,19-10.5,36.9-23.4,36.9c-4.1,0-7.9-1.8-11.3-4.9c-7.2-6.6-12.1-19-12.1-32v-8.4"/>
			<polyline class="st1" points="53.2,110.4 79,142.5 104.8,110.4 			"/>
			<path class="st0" d="M133.5,160.6h-109v-21.5c0-15.8,12.8-28.7,28.7-28.7h51.7c15.8,0,28.7,12.8,28.7,28.7v8.7"/>
			<line class="st0" x1="9.4" y1="160.6" x2="148.6" y2="160.6"/>
		</g>
		<path class="st0" d="M104.8,42.5V47c0,0-3.3,10.5-26.7,10.5S51.3,47,51.3,47v-13"/>
		<polygon class="st0" points="78.1,12 37.4,27.5 78.1,43 90.5,38.3 104.6,33 118.8,27.5 		"/>
		<polyline class="st0" points="78.1,27.5 96.8,35.6 96.8,43.6 		"/>
		<ellipse class="st0" cx="78.1" cy="27.5" rx="3.1" ry="2.1"/>
	</g>
</g>
<g id="Layer_2" class="st2">
	<g id="_x31_9" class="st3">
		<polyline class="st0" points="31.9,101.9 31.9,150 12.9,150 12.9,89.9 31.9,89.9 		"/>
		<polyline class="st0" points="69,101.9 69,150 50,150 50,89.9 69,89.9 		"/>
		<polyline class="st0" points="106.1,101.9 106.1,150 87.1,150 87.1,89.9 106.1,89.9 		"/>
		<polyline class="st0" points="143.2,101.9 143.2,150 124.1,150 124.1,89.9 143.2,89.9 		"/>
		<polyline class="st0" points="158.6,84.7 158.6,89.9 -2.5,89.9 -2.5,74.5 158.6,74.5 		"/>
		<rect x="8.7" y="150" class="st0" width="138.7" height="15.4"/>
		<polyline class="st0" points="158.6,176 158.6,180.8 -2.5,180.8 -2.5,165.4 158.6,165.4 		"/>
		<polygon class="st0" points="78,11.6 4.7,74.5 151.4,74.5 		"/>
		<circle class="st0" cx="78" cy="48.1" r="10.8"/>
		<line class="st0" x1="119.5" y1="45.3" x2="119.5" y2="18"/>
		<rect x="119.5" y="18" class="st0" width="18" height="12.1"/>
	</g>
	<g id="_x31_7" class="st3">
		<polyline class="st0" points="232.2,28.2 232.2,152.7 28.2,152.7 28.2,11.6 232.2,11.6 		"/>
		<polyline class="st4" points="156.9,162.4 156.9,180.4 103.4,180.4 103.4,152.7 156.9,152.7 		"/>
		<line class="st4" x1="84.2" y1="180.4" x2="176.1" y2="180.4"/>
		<line class="st4" x1="28.2" y1="129.1" x2="216.2" y2="129.1"/>
		<g>
			<polyline class="st0" points="99.6,86.5 80.4,86.5 80.4,57.8 99.6,57.8 			"/>
			<path class="st0" d="M131.4,65.2v13.9c-2.9,2.9-4.5,4.5-7.4,7.4h-11.8V57.8h11.6C126.8,60.7,128.5,62.3,131.4,65.2z"/>
			<path class="st0" d="M163.2,57.8v22.8c-2.3,2.3-3.7,3.7-6,6h-7.1c-2.3-2.3-3.7-3.7-6-6V57.8"/>
			<line class="st0" x1="83" y1="72.1" x2="91.8" y2="72.1"/>
		</g>
		<polygon class="st0" points="197.7,106.9 188.5,97.7 194.7,91.3 166.1,83.4 174,112 180.3,105.8 189.5,115 		"/>
	</g>
</g>
</svg>
