<?xml version="1.0" encoding="utf-8"?>
<!-- Generator: Adobe Illustrator 25.2.1, SVG Export Plug-In . SVG Version: 6.00 Build 0)  -->
<svg version="1.1" id="Layer_1" xmlns="http://www.w3.org/2000/svg" xmlns:xlink="http://www.w3.org/1999/xlink" x="0px" y="0px"
	 viewBox="0 0 178 193" style="enable-background:new 0 0 178 193;" xml:space="preserve">
<style type="text/css">
	.st0{fill:none;stroke:#36639E;stroke-width:2.6322;stroke-linecap:square;stroke-miterlimit:10;}
</style>
<g id="_x31_9">
	<polyline class="st0" points="42.9,102.2 42.9,150.3 23.8,150.3 23.8,90.2 42.9,90.2 	"/>
	<polyline class="st0" points="80,102.2 80,150.3 60.9,150.3 60.9,90.2 80,90.2 	"/>
	<polyline class="st0" points="117.1,102.2 117.1,150.3 98,150.3 98,90.2 117.1,90.2 	"/>
	<polyline class="st0" points="154.2,102.2 154.2,150.3 135.1,150.3 135.1,90.2 154.2,90.2 	"/>
	<polyline class="st0" points="169.6,85 169.6,90.2 8.4,90.2 8.4,74.8 169.6,74.8 	"/>
	<rect x="19.6" y="150.3" class="st0" width="138.7" height="15.4"/>
	<polyline class="st0" points="169.6,176.3 169.6,181.1 8.4,181.1 8.4,165.7 169.6,165.7 	"/>
	<polygon class="st0" points="89,11.9 15.7,74.8 162.3,74.8 	"/>
	<circle class="st0" cx="89" cy="48.4" r="10.8"/>
	<line class="st0" x1="130.4" y1="45.6" x2="130.4" y2="18.3"/>
	<rect x="130.4" y="18.3" class="st0" width="18" height="12.1"/>
</g>
</svg>
